HIERARCHY
ROOT hip
{
	OFFSET 0.000000 0.000000 0.000000 
	CHANNELS 6 Xposition Yposition Zposition Xrotation Zrotation Yrotation
	JOINT abdomen
	{
		OFFSET 0.000000 3.402643 0.000000 
		CHANNELS 3 Xrotation Zrotation Yrotation
		JOINT chest
		{
			OFFSET 0.000000 8.438565 -0.680529 
			CHANNELS 3 Xrotation Zrotation Yrotation
			JOINT neck
			{
				OFFSET 0.000000 10.207942 -0.272212 
				CHANNELS 3 Xrotation Zrotation Yrotation
				JOINT head
				{
					OFFSET 0.000000 3.130431 0.000000 
					CHANNELS 3 Xrotation Zrotation Yrotation
					End Site
					{
						OFFSET 0.000000 3.130435 0.000000 
					}
				}
			}
			JOINT lCollar
			{
				OFFSET 3.470700 6.669187 -0.816635 
				CHANNELS 3 Yrotation Zrotation Xrotation
				JOINT lShldr
				{
					OFFSET 3.198488 0.000000 0.000000 
					CHANNELS 3 Zrotation Yrotation Xrotation
					JOINT lForeArm
					{
						OFFSET 10.139888 0.000000 0.000000 
						CHANNELS 3 Yrotation Zrotation Xrotation
						JOINT lHand
						{
							OFFSET 8.370511 0.000000 0.000000 
							CHANNELS 3 Zrotation Yrotation Xrotation
							End Site
							{
								OFFSET 4.083176 0.000000 0.000000 
							}
						}
					}
				}
			}
			JOINT rCollar
			{
				OFFSET -3.470700 6.669187 -0.816635 
				CHANNELS 3 Yrotation Zrotation Xrotation
				JOINT rShldr
				{
					OFFSET -3.198488 0.000000 0.000000 
					CHANNELS 3 Zrotation Yrotation Xrotation
					JOINT rForeArm
					{
						OFFSET -10.139888 0.000000 0.000000 
						CHANNELS 3 Yrotation Zrotation Xrotation
						JOINT rHand
						{
							OFFSET -8.370511 0.000000 0.000000 
							CHANNELS 3 Zrotation Yrotation Xrotation
							End Site
							{
								OFFSET -4.083176 0.000000 0.000000 
							}
						}
					}
				}
			}
		}
	}
	JOINT lThigh
	{
		OFFSET 5.308129 -1.633274 1.361059 
		CHANNELS 3 Xrotation Zrotation Yrotation
		JOINT lShin
		{
			OFFSET -2.041588 -20.007561 0.000000 
			CHANNELS 3 Xrotation Zrotation Yrotation
			JOINT lFoot
			{
				OFFSET 0.000000 -19.190928 -1.224953 
				CHANNELS 3 Xrotation Yrotation Zrotation
				End Site
				{
					OFFSET 0.000000 -2.449906 4.627600 
				}
			}
		}
	}
	JOINT rThigh
	{
		OFFSET -5.308129 -1.633274 1.361059 
		CHANNELS 3 Xrotation Zrotation Yrotation
		JOINT rShin
		{
			OFFSET 2.041588 -20.007561 0.000000 
			CHANNELS 3 Xrotation Zrotation Yrotation
			JOINT rFoot
			{
				OFFSET 0.000000 -19.190928 -1.224953 
				CHANNELS 3 Xrotation Yrotation Zrotation
				End Site
				{
					OFFSET 0.000000 -2.449906 4.627600 
				}
			}
		}
	}
}
MOTION
Frames: 11
Frame Time: 0.033333
-33.851387 49.573761 21.862900 -14.420839 -7.681911 103.994118 0.000000 0.000000 0.000000 3.572107 -2.297039 4.671646 5.649193 1.541948 14.380456 0.424777 4.064920 9.487323 -1.722417 -1.301366 3.885871 -47.718842 -36.540764 -30.929739 -77.383820 -6.756050 -48.031418 35.388802 8.603648 -1.892386 13.608958 5.236595 3.806787 60.622799 36.942989 36.644855 79.987625 -2.782759 5.458941 -24.331560 -14.838364 -1.189616 -23.218590 20.327793 6.091452 7.927920 -2.413467 21.307098 7.498101 -0.020578 -0.505669 -3.778896 -12.756631 -11.015719 24.352230 5.350752 3.193800 11.876957 0.908721 8.447263 
-34.143841 49.448540 22.457085 -13.750907 -7.641325 102.683746 0.000000 0.000000 0.000000 3.161648 -1.994858 4.827067 5.380078 1.901413 14.383117 0.320443 4.221174 9.312729 -1.126726 -0.930212 3.515400 -53.694252 -32.359158 -21.502310 -85.678612 -5.517515 -47.239090 33.946480 11.088264 -1.257082 13.806395 5.443253 3.367730 60.980160 37.975498 37.779301 82.568993 -3.540617 5.353333 -29.396154 -14.440245 -0.755165 -23.138893 20.697105 6.340682 8.011202 -2.388181 22.328297 7.829648 -0.034848 -0.539928 -3.554462 -13.936977 -11.525162 24.171846 5.164371 3.083867 12.021828 0.919668 8.535336 
-34.464298 49.294426 23.158831 -13.150962 -7.516524 101.358513 0.000000 0.000000 0.000000 2.808256 -1.770943 4.865479 5.225155 2.632296 14.175849 -0.097639 3.631577 9.472938 -0.747818 0.251078 3.241929 -59.266529 -29.009872 -12.496154 -92.534897 -3.687426 -42.004753 33.842300 13.648920 -0.503658 13.965141 6.493325 2.923070 60.342022 39.250298 38.911583 85.229836 -4.337104 5.431589 -33.462997 -13.814840 -0.514962 -23.401443 21.340279 6.547884 8.880002 -2.398159 22.616194 7.800620 -0.022817 -0.546521 -3.573944 -14.746799 -11.723010 23.680006 4.794839 1.639279 12.284216 0.918558 8.616143 
-34.828587 49.117012 23.998583 -12.514325 -7.287041 100.014023 0.000000 0.000000 0.000000 2.500654 -1.380956 5.225912 5.424557 2.888434 14.139690 -1.181142 3.703926 9.003935 -0.598006 0.780529 2.978620 -63.457676 -26.484438 -2.598392 -98.023033 -1.045513 -38.226395 36.070168 16.868845 0.710379 14.273709 6.713719 2.578701 60.380367 39.934460 39.982529 87.763809 -5.209327 5.239901 -37.912945 -13.422663 -0.181791 -23.241413 22.127983 6.946127 9.109655 -2.460808 22.695786 8.132155 -0.041880 -0.561758 -3.632591 -15.167470 -11.488829 22.881662 4.178005 0.177233 12.312439 0.877371 8.373921 
-35.124413 48.918118 24.949699 -11.368229 -7.274897 97.991478 0.000000 0.000000 0.000000 2.053112 -1.311493 5.850978 5.021556 2.609262 14.527462 -1.078315 3.940279 8.546022 0.054053 0.530352 2.607489 -66.797630 -24.298567 6.222622 -103.002083 1.581592 -31.720324 36.115864 23.623947 2.926759 14.751244 6.123715 2.257586 60.898621 40.190369 41.163624 89.983482 -6.074987 5.360270 -38.932346 -14.584063 0.308180 -22.430996 22.967846 7.741994 8.791717 -2.750899 23.476631 8.863929 -0.032178 -0.739960 -3.329991 -15.724260 -11.236504 20.766888 3.593041 -0.033469 10.464913 0.676468 7.504421 
-35.445789 48.644085 25.938982 -10.396132 -7.548540 97.031532 0.000000 0.000000 0.000000 1.330205 -1.078854 5.577019 4.382818 2.736329 14.186529 -0.605155 3.592893 8.513542 -0.069687 0.906368 1.933815 -70.416504 -22.099106 15.005633 -106.491882 4.313028 -25.445673 38.341938 24.831573 3.784865 14.522966 5.838350 1.575514 61.949337 39.536594 42.171951 92.553162 -6.878983 6.435904 -36.078960 -16.622581 0.631024 -22.652147 23.441864 7.878268 8.853576 -2.773481 23.666655 9.271925 -0.069278 -0.871194 -1.348752 -16.165039 -11.484986 15.753014 3.638032 1.515140 8.198181 0.748906 10.042675 
-35.817600 48.325661 27.085505 -8.759158 -6.852000 96.018829 0.000000 0.000000 0.000000 1.501694 -1.312942 5.196630 4.234824 2.418827 13.762649 0.034853 3.758504 8.368011 -0.564045 1.005671 2.070414 -73.419579 -20.620762 21.527784 -108.712357 6.696192 -18.098885 44.986900 21.157907 3.607486 14.106297 5.454978 1.767895 62.563065 38.981426 42.483406 94.896378 -7.764022 8.968639 -36.914082 -19.347940 1.622731 -21.482780 23.503487 8.286963 8.189805 -2.822417 23.394089 10.040196 -0.100311 -1.130016 3.046062 -16.543034 -11.894605 7.616258 3.404616 6.811752 7.201550 1.003552 15.617545 
-36.236774 47.935951 28.404207 -7.440149 -6.289026 94.950378 0.000000 0.000000 0.000000 1.554590 -1.352514 4.874221 3.940039 2.136736 13.486313 0.524044 4.157297 8.117443 -0.786466 0.918813 2.119147 -75.787613 -19.544409 25.585415 -110.095642 8.231257 -14.135974 52.181530 15.187231 2.182245 13.661539 5.071480 1.856383 63.901741 38.603893 45.275772 96.447952 -8.555729 6.290483 -48.266945 -15.328225 1.639501 -20.458378 24.081028 8.741524 7.428800 -2.860405 22.523787 11.041862 -0.181623 -1.923440 5.975432 -16.346447 -11.821690 1.733510 3.470356 12.461318 5.118435 0.886190 20.381273 
-36.711964 47.527809 29.949615 -6.414989 -5.584193 94.181274 0.000000 0.000000 0.000000 1.801279 -1.226931 4.346587 3.954873 2.092288 13.133921 0.517892 3.691608 8.289412 -0.908570 1.194607 2.324455 -77.308907 -18.772125 26.304510 -112.034073 8.737542 -11.635550 52.488873 15.432857 2.301203 13.082634 4.662294 2.069352 64.704399 38.100296 46.487175 96.907417 -8.796427 5.933408 -53.783962 -12.751157 1.088129 -19.384581 25.028639 9.331853 6.187586 -2.694679 22.924316 11.552039 -0.291316 -2.884266 6.052785 -15.534891 -11.517309 2.868443 3.218928 9.227026 -1.037219 -0.167001 18.497168 
-37.335495 47.169987 31.566545 -5.256632 -5.109249 93.343124 0.000000 0.000000 0.000000 2.146090 -1.218048 3.780102 3.946825 1.942790 12.790961 0.580182 3.303403 8.481324 -0.976888 1.050082 2.627044 -77.566170 -18.105059 26.383890 -114.062202 8.888327 -10.568655 55.032383 16.660585 3.176744 12.649855 4.726959 2.340230 64.429413 37.409531 46.520275 99.250092 -9.493459 8.301502 -51.866470 -19.132565 3.993283 -18.202881 25.487343 9.614459 4.214575 -2.204264 24.430204 10.929003 -0.315828 -3.271146 5.025298 -14.796679 -11.407072 4.818383 3.440786 4.694842 -6.493764 -0.971477 17.016680 
-37.950970 46.922066 33.254379 -5.087903 -4.195421 92.932472 0.000000 0.000000 0.000000 2.859232 -0.390026 3.173887 4.102602 2.242176 12.314604 0.725492 3.062551 8.401127 -1.046021 1.877123 3.262999 -79.008301 -18.868334 27.806717 -115.025764 8.922579 -14.459006 58.700306 9.821651 0.049978 12.076946 5.804175 2.780461 63.784363 37.478325 47.386349 99.996086 -9.862018 9.751651 -54.229897 -18.086670 3.860881 -16.092648 26.501148 10.177973 0.887179 -1.464306 23.835377 9.783186 -0.313409 -3.609385 4.362569 -12.749651 -10.247531 6.159594 3.229559 -0.079619 -10.603345 -1.496799 15.572613 
